<svg xmlns="http://www.w3.org/2000/svg" viewBox="0 0 280 220">
  <defs>
    <linearGradient id="stress" x1="0%" y1="0%" x2="100%" y2="100%">
      <stop offset="0%" stop-color="#E85D04"/>
      <stop offset="100%" stop-color="#3D1F5C"/>
    </linearGradient>
  </defs>
  <rect width="280" height="220" rx="16" fill="#FAF7F2"/>
  <!-- sticky notes -->
  <rect x="180" y="24" width="72" height="48" rx="4" fill="#FFBA08" opacity="0.9" transform="rotate(8 216 48)"/>
  <rect x="168" y="72" width="80" height="40" rx="4" fill="#F48C06" opacity="0.85" transform="rotate(-5 208 92)"/>
  <rect x="190" y="118" width="64" height="52" rx="4" fill="#FFE566" transform="rotate(12 222 144)"/>
  <text x="188" y="52" font-size="8" fill="#2A2D33" transform="rotate(8 216 48)">DDS?</text>
  <text x="176" y="98" font-size="7" fill="#2A2D33" transform="rotate(-5 208 92)">GEO</text>
  <!-- character -->
  <ellipse cx="100" cy="200" rx="48" ry="8" fill="#2A2D33" opacity="0.08"/>
  <circle cx="100" cy="100" r="36" fill="url(#stress)"/>
  <circle cx="88" cy="96" r="4" fill="#FAF7F2"/>
  <circle cx="112" cy="96" r="4" fill="#FAF7F2"/>
  <path d="M88 112 Q100 104 112 112" stroke="#FAF7F2" stroke-width="2" fill="none"/>
  <rect x="72" y="136" width="56" height="48" rx="12" fill="#5C2D82"/>
</svg>
